<?xml version="1.0" encoding="UTF-8"?>
<!DOCTYPE svg PUBLIC "-//W3C//DTD SVG 1.1//EN" "http://www.w3.org/Graphics/SVG/1.1/DTD/svg11.dtd">
<!-- Creator: CorelDRAW X6 -->
<svg xmlns="http://www.w3.org/2000/svg" xml:space="preserve" width="253px" height="95px" version="1.1" style="shape-rendering:geometricPrecision; text-rendering:geometricPrecision; image-rendering:optimizeQuality; fill-rule:evenodd; clip-rule:evenodd"
viewBox="0 0 24052704 9013913"
 xmlns:xlink="http://www.w3.org/1999/xlink">
 <defs>
  <style type="text/css">
   <![CDATA[
    .fil1 {fill:#83665F}
    .fil0 {fill:#902F35}
    .fil2 {fill:#83665F;fill-rule:nonzero}
   ]]>
  </style>
 </defs>
 <g id="Слой_x0020_1">
  <metadata id="CorelCorpID_0Corel-Layer"/>
  <path class="fil0" d="M11719064 4340478c0,-108746 -17891,-178693 -53637,-210559 -35746,-31076 -148408,-48930 -337987,-55146l2335 -157749c122757,-2335 255610,-7760 397803,-14765 142983,-6215 313917,-17855 513590,-32620l0 2993704c0,145318 20226,233120 60606,262615 40416,29531 139858,47422 298361,53637l0 158503c-182573,-9341 -320096,-14765 -413358,-17891 -94017,-3090 -168598,-4670 -224534,-4670 -44296,0 -107237,1581 -189579,4670 -82377,3126 -218355,8550 -407934,17891l0 -156168c164718,-15556 264950,-37327 300696,-66857 35746,-30285 53637,-114207 53637,-251730l0 -2522865zm-1150728 -270375c81587,0 148408,24860 201254,75372 52056,49721 78461,113453 78461,191123 0,86257 -31076,160838 -93227,222989 -62187,62187 -136768,93262 -222989,93262 -80832,0 -146863,-25651 -198165,-77707 -52056,-51302 -77671,-114997 -77671,-191123 0,-83167 31830,-156204 95562,-219145 63696,-62905 135978,-94771 216774,-94771zm289020 983639l0 1809601c0,146863 20226,235420 61397,264196 41171,28740 139858,45841 297571,52056l0 158503c-186453,-9341 -327101,-14765 -421873,-17891 -94807,-3090 -171724,-4670 -230785,-4670 -62151,0 -142947,1581 -241635,4670 -97897,3126 -241635,8550 -429668,17891l0 -158503c210559,-10885 337196,-31076 379157,-60606 42751,-29531 63732,-114997 63732,-255646l0 -1304561c-1581,-177148 -147654,-267249 -438219,-270375l-4670 0 0 -161593c156168,-6251 314671,-14765 475509,-26441 160838,-11640 324012,-27196 489484,-46631zm-3487859 504286c0,-118123 -19436,-192704 -59026,-222989 -39626,-30321 -146073,-45841 -318587,-47422l0 -163928c148408,-3880 296816,-12430 443679,-23316 147618,-11640 293691,-27196 438219,-46631l0 536152c100196,-177184 222989,-310791 369817,-400928 146073,-90137 313917,-135223 501950,-135223 247059,0 428878,66821 543875,200464 115752,132888 173268,344992 173268,634048l0 975089c0,142193 15556,227660 47386,255646 31866,27950 109573,48176 232330,60606l0 158503c-165509,-9341 -288266,-14765 -369062,-17891 -80042,-3090 -143738,-4670 -191159,-4670 -55936,0 -129727,1581 -220654,4670 -90891,3880 -217565,9341 -379948,17891l0 -158503c167844,-15556 268830,-37327 303031,-66067 34201,-28740 51266,-112662 51266,-250185l0 -1006955c0,-198919 -31076,-340322 -93227,-424244 -62151,-84676 -164718,-126637 -306911,-126637 -156168,0 -303031,71492 -438973,213649 -136768,142983 -205134,289847 -205134,439799l0 904387c0,139103 16310,223780 48176,253310 31866,30285 110327,50511 236210,62941l0 158503c-160838,-9341 -282841,-14765 -366763,-17891 -83132,-3090 -149162,-4670 -198129,-4670 -57481,0 -131308,1581 -221409,4670 -90927,3126 -219900,8550 -388498,17891l0 -158503c175568,-15556 281260,-37327 316216,-66821 34955,-30321 52056,-113453 52056,-249430l0 -1305316zm-1435078 1445173c-113453,135978 -230749,232330 -351207,289811 -120422,58271 -268040,87011 -442853,87011 -177148,0 -318587,-47386 -421909,-141403 -104112,-94017 -156168,-222199 -156168,-384582 0,-181064 62151,-320922 186453,-419573 124338,-98687 397048,-191914 818957,-279716 41171,-9341 91682,-19436 153042,-29531 132098,-24860 198129,-62941 198129,-116542l0 -250185c0,-209014 -31076,-352752 -93227,-430459 -62941,-76916 -170143,-115752 -321677,-115752 -71456,0 -139067,10849 -203554,32620 -63732,22525 -122757,54391 -177148,97107 6970,49757 12430,92472 15520,127428 3126,34955 4670,67612 4670,97897 0,86257 -24070,158503 -71492,216020 -47386,57481 -107202,87011 -178693,87011 -66031,0 -118877,-20980 -158503,-61361 -39626,-41206 -59061,-96352 -59061,-166299 0,-156168 90927,-293691 272746,-411778 181783,-118123 400892,-177184 657292,-177184 282051,0 489520,61397 622373,183399 132098,121967 198919,313881 198919,575741l0 13975 -4670 825926 0 102567c0,143738 13221,236210 39626,275045 26405,39626 74581,59816 142193,59816 41171,0 78461,-10849 111872,-31076 33411,-20190 64486,-52056 93262,-94017l97897 65277c-62151,112662 -141439,199674 -237755,259525 -95562,59816 -201254,90101 -317006,90101 -131308,0 -229995,-29495 -296026,-89347 -66067,-59026 -106447,-154623 -122003,-287476zm-15556 -769200c-343411,65277 -571071,135978 -682188,210559 -111082,75372 -166263,183364 -166263,324766 0,111908 30321,202009 90137,270411 59816,68366 139067,102531 236210,102531 89347,0 179484,-29495 270375,-88556 90137,-59061 172478,-143738 247095,-252520l4634 -567191zm-4036656 -1001278c-165940,129655 -384941,176250 -591261,181352 -231719,5712 -432183,359 -642599,-113309 -157892,-85287 -255969,-202332 -313737,-371326 -110686,-323760 -92616,-538091 18538,-857110 72138,-207038 199458,-436387 394605,-549049 129942,-75048 261142,-105585 410412,-108315 399886,11604 756626,368416 929715,704786 54247,105333 98220,210164 140576,320635l14909 40093c504178,948181 829052,2039740 1221501,3077518 242066,639976 834405,1296837 1533334,1395273 256292,36105 512369,10203 747465,-99657 163281,-76306 261897,-135152 406101,-243359 78102,-58594 242281,-174418 241383,-173664 -67360,57193 -213074,141295 -289918,185699 -238832,138097 -536439,187423 -804946,120243 -395396,-98975 -670585,-338526 -917033,-649892 -272387,-344022 -471737,-748255 -638252,-1159889l875970 -2552647c23855,-69480 55074,-119057 96352,-146073 41853,-27339 118123,-45841 229204,-56690l0 -186489c-118087,7760 -210559,13221 -275800,17101 -65277,3880 -117333,6215 -156958,6215 -51302,0 -113453,-2335 -185699,-6215 -71492,-3880 -165509,-9341 -281260,-17101l0 186489c121967,0 208978,14729 261825,43506 53601,28740 80042,74581 80042,138277 0,28776 -3126,57517 -9341,84712 -6215,27196 -18645,66031 -38835,115752l-444649 1332906 -257011 766434c-24860,-66642 -49110,-133176 -72929,-199386 -265741,-739418 -524584,-1459867 -898891,-2153875 -181639,-336801 -404269,-713013 -705827,-954324 -209230,-167413 -328933,-247958 -607104,-266998 -166083,-7005 -333101,21879 -493005,65815 -150779,41458 -280901,141762 -398701,241814 -204488,173736 -331879,478886 -389935,735502 -51122,225971 -70450,356129 -14550,586950 60175,248568 180849,479569 381457,642563 258017,209625 543408,248137 866773,240521 219900,-5209 456146,-50475 635090,-185016 175783,-132170 290637,-248640 297247,-482766 4850,-171544 -61684,-335328 -189183,-450900l-10167 -8945c-131128,-112051 -257621,-118446 -416340,-72102 -200069,73036 -348621,363242 -196261,531733 129547,103393 296457,123691 422627,66031 126170,-57624 158503,-118841 184908,-26405 10885,100915 -86940,194967 -149845,263585z"/>
  <path class="fil1" d="M18817862 518045c0,0 453954,215050 310611,633186 -143343,418100 645078,441991 645078,441991 0,0 -89526,-330227 -330083,-599237 -240557,-269010 374056,316898 413718,443931 39662,127032 -41817,-1284227 -1039323,-919871zm2684889 -429130c0,0 -669183,316970 -457870,933307 211314,616337 -950911,651544 -950911,651544 0,0 131990,-486754 486574,-883299 354620,-396545 -551384,467139 -609835,654382 -58487,187243 61612,-1893056 1532041,-1355935z"/>
  <path class="fil0" d="M22989526 1905055c0,0 79252,1598072 -1492415,1558446 -1571667,-39590 -1584887,-1875417 -1584887,-1875417 0,0 -2623,37291 -2479,101921l3772 13544 -3700 -108c3449,434267 134110,1946872 1785387,1958189 1867297,12789 2342088,-3588055 -275117,-3398800 -85970,62403 -194536,161449 -257765,295846 1078662,-267214 1736170,168598 1825408,1323027l1796 23352zm90388 5098146c-113417,135978 -230749,232330 -351171,289811 -120458,58271 -268076,87011 -442889,87011 -177148,0 -318551,-47386 -421909,-141403 -104112,-94017 -156168,-222199 -156168,-384582 0,-181064 62151,-320922 186489,-419573 124302,-98687 397012,-191914 818921,-279716 41171,-9341 91682,-19436 153078,-29531 132062,-24860 198129,-62941 198129,-116542l0 -250185c0,-209014 -31076,-352752 -93262,-430459 -62905,-76916 -170143,-115752 -321641,-115752 -71492,0 -139103,10849 -203590,32620 -63696,22525 -122757,54391 -177148,97107 7005,49757 12430,92472 15556,127428 3090,34955 4634,67612 4634,97897 0,86257 -24070,158503 -71456,216020 -47422,57481 -107237,87011 -178729,87011 -66031,0 -118877,-20980 -158503,-61361 -39626,-41206 -59026,-96352 -59026,-166299 0,-156168 90891,-293691 272710,-411778 181819,-118123 400928,-177184 657328,-177184 282051,0 489484,61397 622373,183399 132062,121967 198883,313881 198883,575741l0 13975 -4670 825926 0 102567c0,143738 13221,236210 39626,275045 26441,39626 74617,59816 142193,59816 41206,0 78497,-10849 111908,-31076 33411,-20190 64486,-52056 93227,-94017l97897 65277c-62151,112662 -141403,199674 -237755,259525 -95562,59816 -201254,90101 -317006,90101 -131308,0 -229995,-29495 -296026,-89347 -66031,-59026 -106447,-154623 -122003,-287476zm-15520 -769200c-343447,65277 -571107,135978 -682188,210559 -111117,75372 -166299,183364 -166299,324766 0,111908 30321,202009 90137,270411 59852,68366 139103,102531 236210,102531 89347,0 179484,-29495 270375,-88556 90137,-59061 172514,-143738 247095,-252520l4670 -567191zm-2754369 -232222l623881 -601500c52056,-48930 106447,-83886 163928,-106447 57517,-21735 124338,-32620 200464,-32620l22525 0 0 -160838c-16310,1545 -40380,3126 -70701,4670 -172478,9305 -292900,13975 -361302,13975 -63696,0 -178693,-4670 -344202,-13975 -40380,-1545 -72246,-3126 -95562,-4670l0 158503c79252,3126 135978,11676 170933,26441 34991,13975 52056,35710 52056,64486 0,17065 -10849,41961 -34165,75372 -22525,33411 -54391,69911 -95562,108746l-342477 337592c-122937,-145283 -246053,-290493 -369242,-435704 -169137,-199279 -338526,-398557 -508166,-597943 -580986,-683087 -1164703,-1368041 -1750648,-2062876 543696,-366368 931906,-758925 1628465,-1217765 -36069,-20873 -69264,-44799 -97681,-72246 -24932,18502 -49757,36895 -74473,55146 -501160,369924 -1019349,763380 -1562865,1108408 -222199,-263837 -444721,-529146 -667531,-796396 -284458,-341256 -589249,-681326 -892137,-1005841 -70881,-75946 -311438,-288697 -409981,-331017 -324119,-139175 -510285,-158862 -864223,-100088 -821292,136409 -1304741,667890 -1371203,1437054 -95705,1107618 672058,1670103 1650128,1820666 65097,10023 835914,-13939 1153459,-146576l58091 -23890c211278,-84928 427836,-174993 634192,-270267 222558,-102783 414867,-206392 588531,-311725 322251,436566 643461,873851 967006,1306896 329760,441344 665914,893286 1010871,1331972l0 1304022c0,135187 -17101,217565 -51266,247095 -34201,29531 -141403,52056 -321677,69157l0 158503c151498,-9341 274291,-14765 368308,-17891 94771,-3090 176358,-4670 246269,-4670 39626,0 94017,1581 164754,4670 70701,3126 195003,8550 372152,17891l0 -158503c-118087,-12430 -192668,-32656 -223780,-61397 -31076,-28740 -46595,-114207 -46595,-254855l0 -428124 118913 -109860c100340,115896 244652,275620 356129,367410l259957 305007c16346,19400 28776,37291 36536,52056 7005,15520 10885,28740 10885,41171 0,28740 -12430,50511 -38871,64486 -25615,14765 -64486,23316 -115752,26441l0 156168c154623,-9341 272710,-14765 355087,-17891 81587,-3090 148372,-4670 200464,-4670 51266,0 117297,1581 198129,4670 80006,3126 195003,8550 343411,17891l0 -158503c-76162,0 -145283,-17101 -207470,-52056 -62151,-34991 -134397,-99478 -218319,-193495l-675435 -761440c-48068,-56942 -96137,-113884 -144241,-170826zm-456325 210990l-23100 22777 0 -50224c3341,3988 6718,7975 10095,11963 3521,4203 7904,9412 13005,15484zm-4482886 -2701163c-624851,107920 -1312321,-160838 -1700029,-644575 -534535,-666920 -374595,-1538615 282805,-2043153 296888,-227839 903094,-390402 1273557,-256508 148085,53493 246449,87802 359003,195147 94412,89993 452517,422124 538379,533206 378475,489844 750124,988740 1119976,1489218 -689194,414077 -1098421,592806 -1873692,726664zm976634 2061403c0,-118123 -19400,-192704 -59026,-222989 -39626,-30321 -146073,-45877 -318587,-47422l0 -163928c148408,-3880 296816,-12430 443679,-23316 147618,-11640 293691,-27196 438219,-46631l0 536116c100232,-177148 222989,-310791 369817,-400892 146073,-90137 313917,-135223 501950,-135223 247059,0 428878,66821 543875,200464 115788,132888 173268,344992 173268,634012l0 975125c0,142193 15556,227660 47386,255646 31866,27950 109573,48140 232330,60606l0 158467c-165509,-9305 -288266,-14729 -369062,-17855 -80042,-3126 -143738,-4670 -191123,-4670 -55972,0 -129763,1545 -220690,4670 -90891,3880 -217529,9341 -379948,17855l0 -158467c167844,-15556 268866,-37327 303031,-66067 34201,-28740 51302,-112662 51302,-250185l0 -1006955c0,-198919 -31111,-340322 -93262,-424244 -62151,-84676 -164718,-126637 -306911,-126637 -156168,0 -302995,71456 -438973,213649 -136768,142983 -205134,289811 -205134,439799l0 904387c0,139067 16310,223780 48176,253310 31866,30285 110327,50475 236210,62941l0 158467c-160838,-9305 -282841,-14729 -366727,-17855 -83132,-3126 -149198,-4670 -198129,-4670 -57517,0 -131343,1545 -221445,4670 -90927,3126 -219900,8550 -388498,17855l0 -158467c175604,-15556 281260,-37327 316216,-66857 34991,-30285 52056,-113417 52056,-249395l0 -1305316zm-1742672 1748169c104902,-3126 190369,-4670 257190,-4670 59816,0 139067,1545 238545,4670 99442,3126 247059,8550 442853,17855l0 -181783c-176358,0 -287476,-20226 -334071,-61397 -45841,-41171 -69157,-150743 -69157,-330227l0 -2195728c0,-173268 23316,-281260 69157,-325556 46595,-44296 157713,-66067 334071,-66067l-2299 -186453 -154623 6970c-270411,14011 -456864,20980 -558677,20980 -76916,0 -232294,-6215 -464624,-18645 -92472,-4634 -164718,-7760 -215984,-9305l0 186453c176358,0 286685,20980 332526,63732 45841,42715 68402,151498 68402,327892l0 2195728c0,173268 -22561,281260 -66821,325556 -45086,44296 -156204,66067 -334107,66067l0 181783c200464,-9305 352752,-14729 457618,-17855z"/>
  <path class="fil2" d="M6512208 8764841l0 -45553c22885,-3305 41099,-7580 54535,-13005 13400,-5173 23459,-12754 29890,-22417 6754,-9700 10670,-21950 12322,-37075 1688,-14873 2515,-33518 2515,-55469l0 -689625 -66282 0c-32980,0 -57876,3054 -75479,9664 -17352,6395 -32728,16526 -45625,30465 -12574,13688 -23747,32333 -32980,55505 -9233,23352 -17065,45302 -22920,66103l-112447 0 0 -242712 964563 0 0 242712 -112411 0c-10382,-31399 -18466,-54319 -24609,-69192 -5856,-14622 -12610,-27160 -19903,-37542 -7508,-10382 -15340,-19112 -23459,-25974 -8083,-6826 -16777,-12502 -26262,-16741 -9233,-4024 -20729,-7077 -34704,-9233 -13975,-2120 -32153,-3054 -54571,-3054l-58954 0 0 689625c0,24322 826,42967 2515,55469 1688,12754 4491,23136 8945,30932 4455,7796 9772,14155 15951,18897 6431,4958 15053,9197 26262,13221 11209,4024 26297,7077 45625,9448l0 45553 -452517 0zm1362365 11101c-160551,0 -281081,-39662 -361590,-118985 -80581,-79323 -120817,-198093 -120817,-356273 0,-103645 19256,-192417 58379,-265848 39159,-73647 96496,-129583 172586,-167844 75803,-38261 166119,-57373 270986,-57373 163317,0 286074,39662 368020,118770 81946,78856 122793,196404 122793,352249 0,87083 -11999,161952 -36357,224498 -24322,62582 -59026,113812 -103753,153941 -44763,40129 -98400,69659 -160838,88520 -62618,18897 -132242,28345 -209409,28345zm-222091 -493903c0,139283 19903,242928 59600,310935 39410,67971 100052,101992 181459,101992 41997,0 77779,-9448 107130,-28561 29639,-19364 53421,-46056 71887,-80293 18178,-34453 31327,-75084 39159,-122039 8083,-47242 11999,-98687 11999,-155126 0,-91610 -8658,-168562 -26010,-230641 -17065,-61864 -43075,-108854 -77743,-140253 -34704,-31650 -79144,-47458 -133104,-47458 -79144,0 -138169,31866 -176502,95849 -38584,63768 -57876,162455 -57876,295595zm1317315 310001c0,30213 1401,51912 4239,64666 2515,12502 6934,22669 13364,30213 6179,7796 15412,13939 27160,19148 11748,4958 29926,9448 54247,13221l0 45553 -440734 0 0 -45553c20370,-4742 36357,-9700 48068,-14873 11748,-5425 20442,-12754 26046,-22202 5856,-9448 9484,-21483 11173,-35890 1653,-14622 2515,-33051 2515,-55002l0 -596363c0,-21735 -862,-39913 -2227,-54535 -1150,-14873 -4778,-26693 -10634,-36141 -5604,-9197 -14262,-16526 -26010,-22417 -11712,-5676 -27950,-10849 -48930,-15592l0 -45553 475976 0c138457,0 241886,20765 310719,62546 68761,41817 103178,106016 103178,192668 0,61397 -16202,114494 -48392,159832 -32153,45086 -78856,79323 -140109,102711 -61253,23136 -137594,34920 -229276,34920 -53206,0 -96532,-934 -130373,-2838l0 221480zm0 -299618l70486 0c54535,0 97861,-6610 130338,-19579 32153,-13221 55936,-34237 71599,-62798 15628,-28597 23459,-67073 23459,-115464 0,-47925 -7832,-86185 -23459,-114494 -15663,-28345 -38332,-48392 -68546,-60463 -29926,-12035 -68510,-17927 -115464,-17927 -38081,0 -67684,467 -88413,1401l0 389324zm997650 472420l0 -45553c22920,-3305 41135,-7580 54535,-13005 13400,-5173 23495,-12754 29890,-22417 6754,-9700 10670,-21950 12322,-37075 1724,-14873 2515,-33518 2515,-55469l0 -689625 -66282 0c-32980,0 -57840,3054 -75443,9664 -17388,6395 -32764,16526 -45625,30465 -12574,13688 -23783,32333 -32980,55505 -9233,23352 -17101,45302 -22956,66103l-112447 0 0 -242712 964599 0 0 242712 -112447 0c-10347,-31399 -18502,-54319 -24609,-69192 -5892,-14622 -12610,-27160 -19867,-37542 -7544,-10382 -15376,-19112 -23495,-25974 -8083,-6826 -16777,-12502 -26262,-16741 -9233,-4024 -20729,-7077 -34668,-9233 -14011,-2120 -32189,-3054 -54571,-3054l-58990 0 0 689625c0,24322 826,42967 2551,55469 1617,12754 4455,23136 8910,30932 4455,7796 9772,14155 15951,18897 6431,4958 15053,9197 26262,13221 11209,4024 26297,7077 45625,9448l0 45553 -452517 0zm1359814 -944121l0 45553c-41925,5676 -69085,16526 -81371,32584 -12322,16059 -18466,48176 -18466,96101l0 226869c72713,-5892 133104,-8981 180921,-8981 137343,0 238258,22453 303714,67540 65169,44871 97897,114961 97897,209877 0,182968 -142660,274578 -427585,274578l-496705 0 0 -45553c37794,-8047 61828,-19615 72138,-34955 10347,-15592 15663,-46523 15663,-93011l0 -596363c0,-47458 -4994,-78641 -14801,-93262 -9808,-14873 -34129,-26693 -73001,-35423l0 -45553 441596 0zm-99837 484922l0 376104c132852,8478 220654,-4024 264232,-37327 43398,-33051 65205,-83563 65205,-151318 0,-60427 -16813,-107417 -50332,-141187 -33806,-33770 -94807,-50511 -183220,-50511 -29028,0 -60930,1401 -95885,4239zm989674 -310683l0 596363c0,46021 5317,76952 15699,92544 10382,15807 34668,27375 72713,35423l0 45553 -430135 0 0 -45553c38332,-8047 62690,-19615 72713,-34955 10095,-15592 15089,-46523 15089,-93011l0 -597081c0,-46990 -4994,-77922 -14801,-92544 -9808,-14873 -34093,-26693 -73001,-35423l0 -45553 430135 0 0 45553c-38584,9233 -63193,21483 -73288,36357 -10023,15125 -15125,45805 -15125,92328zm3047521 -152755l0 200428 -111333 0c-13149,-51912 -33842,-90424 -62367,-114961 -28237,-24789 -65420,-37075 -111297,-37075 -86437,0 -151605,34955 -195758,104830 -44476,69875 -66570,173520 -66570,310935 0,127715 20442,224283 60678,290134 40560,65636 99837,98472 177867,98472 39985,0 72462,-5676 97609,-16993 24860,-11352 45015,-28094 60139,-50763 15089,-22669 27914,-54319 38835,-95382l112195 0 0 209409c-59924,12035 -114961,20765 -164503,26441 -49721,5425 -101489,8263 -154911,8263 -113524,0 -206356,-17244 -278243,-51948 -71887,-34453 -124733,-86868 -158862,-156527 -34057,-69875 -51158,-158431 -51158,-265345 0,-100124 20154,-186992 60139,-261142 40237,-73899 99226,-131020 177292,-171149 78317,-40129 171724,-60211 280219,-60211 55361,0 105154,2587 149881,7544 45015,5209 91754,13472 140145,25040zm1263031 922638l-448026 0 0 -45553c46416,-9233 74402,-22920 84173,-40847 10059,-17963 14873,-50763 14873,-98220l0 -677123 -180957 0c-10957,106950 -31938,221947 -62618,344956 -31076,123224 -64917,226869 -102136,310935 -37183,84281 -76629,141403 -118015,171616 -41386,30213 -94520,45338 -158826,45338 -49793,0 -95059,-5676 -136193,-16526l0 -167377 104830 0c7868,40344 28561,60642 62403,60642 26836,0 52272,-9915 76090,-29962 24034,-20082 51194,-68474 81084,-145211 30177,-76952 58163,-170215 84425,-280219 26297,-110040 39482,-189830 39482,-239659 0,-33985 -6179,-57121 -18502,-68689 -12287,-11784 -33842,-19364 -64307,-22669l0 -45553 742220 0 0 45553c-38584,8263 -64342,18897 -76629,31866 -12287,13005 -18430,48428 -18430,106483l0 575598c0,54786 5856,89706 17316,104363 11424,14873 37506,26190 77743,34704l0 45553zm818095 -292505l-349842 0 -26872 65636c-7796,18394 -13939,36357 -18969,53565 -4778,17244 -7257,35674 -7257,55038 0,45086 28166,69408 85251,72713l0 45553 -349842 0 0 -45553c20154,-1904 37758,-8047 53134,-18178 15376,-10167 29064,-23855 41674,-41314 12574,-17711 26010,-42751 40272,-75551l341723 -768481 218714 0 270411 774840c12035,34488 22130,59026 30213,73647 8119,14406 18717,26226 31866,35207 13149,8945 31614,15556 55146,19831l0 45553 -452553 0 0 -45553c28525,-2838 49505,-9448 63229,-20082 13688,-10634 20442,-25723 20442,-45086 0,-14155 -1976,-30213 -5640,-47709 -3916,-17460 -10023,-39662 -18969,-66318l-22130 -67755zm-318515 -80976l294768 0 -130912 -389324 -163856 389324zm1132730 373481c-53996,0 -91143,15807 -111046,47673 -19831,31902 -39949,98939 -60067,201398l-108279 0 0 -337592 87550 0c83599,-98687 150707,-219109 201614,-360979 50906,-142157 76342,-260891 76342,-356273 0,-36357 -7544,-60427 -22346,-71995 -14550,-11568 -34955,-18430 -60427,-20801l0 -45553 738053 0 0 45553c-38009,7796 -63732,18178 -76665,30932 -12825,12502 -18969,48392 -18969,107417l0 671698 130876 0 0 337592 -107956 0c-18753,-94664 -38009,-159832 -57912,-195470 -19831,-35674 -58163,-53601 -115213,-53601l-495556 0zm391552 -88520l0 -773224 -176178 0c-33303,329580 -120027,587417 -260424,773224l436602 0zm1091882 99621c-160515,0 -281081,-39662 -361590,-118985 -80545,-79323 -120817,-198093 -120817,-356273 0,-103645 19292,-192417 58451,-265848 39159,-73647 96460,-129583 172514,-167844 75803,-38261 166155,-57373 271022,-57373 163317,0 286110,39662 368020,118770 81982,78856 122757,196404 122757,352249 0,87083 -11999,161952 -36321,224498 -24357,62582 -59026,113812 -103789,153941 -44763,40129 -98400,69659 -160766,88520 -62690,18897 -132278,28345 -209481,28345zm-222055 -493903c0,139283 19867,242928 59564,310935 39410,67971 100124,101992 181531,101992 41961,0 77743,-9448 107094,-28561 29603,-19364 53421,-46056 71851,-80293 18178,-34453 31327,-75084 39195,-122039 8083,-47242 11999,-98687 11999,-155126 0,-91610 -8658,-168562 -26010,-230641 -17065,-61864 -43075,-108854 -77743,-140253 -34704,-31650 -79180,-47458 -133140,-47458 -79144,0 -138097,31866 -176466,95849 -38620,63768 -57876,162455 -57876,295595zm1789124 -439835l0 200428 -111333 0c-13149,-51912 -33842,-90424 -62331,-114961 -28273,-24789 -65456,-37075 -111333,-37075 -86437,0 -151570,34955 -195758,104830 -44476,69875 -66570,173520 -66570,310935 0,127715 20442,224283 60678,290134 40596,65636 99837,98472 177867,98472 39985,0 72462,-5676 97609,-16993 24896,-11352 45015,-28094 60139,-50763 15089,-22669 27950,-54319 38835,-95382l112195 0 0 209409c-59888,12035 -114961,20765 -164503,26441 -49721,5425 -101489,8263 -154875,8263 -113560,0 -206392,-17244 -278279,-51948 -71851,-34453 -124733,-86868 -158826,-156527 -34129,-69875 -51158,-158431 -51158,-265345 0,-100124 20118,-186992 60103,-261142 40237,-73899 99262,-131020 177292,-171149 78317,-40129 171724,-60211 280219,-60211 55397,0 105154,2587 149881,7544 45015,5209 91754,13472 140145,25040zm457618 922638l0 -45553c22920,-3305 41135,-7580 54535,-13005 13400,-5173 23495,-12754 29890,-22417 6754,-9700 10670,-21950 12322,-37075 1724,-14873 2515,-33518 2515,-55469l0 -689625 -66282 0c-32980,0 -57840,3054 -75479,9664 -17352,6395 -32728,16526 -45589,30465 -12574,13688 -23783,32333 -33015,55505 -9197,23352 -17065,45302 -22920,66103l-112447 0 0 -242712 964563 0 0 242712 -112411 0c-10382,-31399 -18502,-54319 -24609,-69192 -5892,-14622 -12610,-27160 -19867,-37542 -7544,-10382 -15376,-19112 -23495,-25974 -8083,-6826 -16777,-12502 -26262,-16741 -9233,-4024 -20729,-7077 -34668,-9233 -14011,-2120 -32189,-3054 -54571,-3054l-58990 0 0 689625c0,24322 826,42967 2551,55469 1617,12754 4419,23136 8910,30932 4455,7796 9772,14155 15951,18897 6431,4958 15053,9197 26262,13221 11209,4024 26297,7077 45589,9448l0 45553 -452481 0zm1900672 -173520c0,46488 4778,77419 14262,93011 9484,15340 33842,26908 72426,34955l0 45553 -427585 0 0 -45553c39446,-8047 63768,-18645 72965,-32369 9233,-13436 14011,-45553 14011,-95598l0 -270555c0,-81694 2515,-143558 7257,-186058l-4742 0 -389324 456613c0,45553 5065,76234 15125,92292 10095,15843 34668,27627 73288,35674l0 45553 -430135 0 0 -45553c37794,-8047 61828,-19615 72138,-34955 10347,-15592 15663,-46523 15663,-93011l0 -596363c0,-47458 -4994,-78641 -14801,-93262 -9808,-14873 -34129,-26693 -73001,-35423l0 -45553 430135 0 0 45553c-38620,9233 -63193,21483 -73288,36824 -10059,15125 -15125,46056 -15125,92580l0 304289c0,57624 -1940,103178 -5856,136229l5065 0 387600 -457080c0,-38692 -4994,-65133 -14801,-79323 -9808,-13903 -33878,-25256 -72174,-33518l0 -45553 427585 0 0 45553c-38045,8730 -62079,20801 -71887,35674 -9772,15089 -14801,46272 -14801,93730l0 595644zm-10039980 96065c-57373,33087 -112986,56223 -166982,69192 -54283,12969 -116614,19364 -187639,19364 -109393,0 -194105,-19615 -254532,-58774 -60391,-39195 -90604,-94915 -90604,-166694 0,-23136 3664,-44619 11209,-64450 7257,-19831 17927,-38476 31614,-56187 13400,-17963 30752,-35171 51445,-51948 20657,-16777 45266,-33303 73288,-49110 28237,-16059 67109,-34920 116901,-57121 -31040,-35890 -53457,-64702 -66857,-86401 -13400,-21735 -23495,-43937 -30752,-66821 -7005,-22669 -10670,-47242 -10670,-72965 0,-45086 15125,-85682 45015,-121356 30213,-35638 73611,-63983 130373,-84281 56762,-20549 118877,-30932 185950,-30932 88664,0 158323,15340 208907,46056 50906,30680 76342,74833 76342,132457 0,21232 -3593,41063 -11173,59493 -7293,18394 -19831,37291 -37758,56403 -17603,19112 -41099,38261 -70486,57373 -29100,19112 -78030,46056 -147115,80509 34704,38261 76665,81910 126709,131020 50116,49110 92831,89957 128398,122075 24609,-25256 42464,-49829 54247,-73647 11748,-23639 17639,-47960 17639,-72965 0,-23855 -6179,-41099 -18214,-51697 -12322,-10634 -31902,-16777 -58774,-18178l0 -45589 255681 0 0 40165c0,5892 -2515,18861 -7293,38692 -3377,12538 -7508,25040 -12322,37327 -4455,12969 -9520,25471 -15663,37506 -5856,12287 -12861,24322 -20406,35890 -7508,12071 -15987,23639 -24609,35207 -8694,11568 -18178,22885 -28776,33985 -10921,11568 -22417,22669 -34417,33770 -12358,11065 -25184,21699 -38332,31866 24034,23603 44763,42248 62618,55936 17639,13939 33303,23855 47026,29746 13688,6143 27663,9233 41961,9233 13113,0 25399,-2623 36895,-7329 11460,-4958 27411,-14873 48140,-30213l53385 56870c-43075,36860 -84461,63516 -123871,80042 -39159,16777 -79755,25040 -121141,25040 -45266,0 -84712,-7077 -118015,-21483 -33267,-14406 -69049,-36608 -107345,-67073zm-202224 -513950c53996,-27627 93981,-57373 120278,-89239 26262,-31866 39446,-63983 39446,-96783 0,-32836 -10095,-58810 -30537,-77922 -20118,-19112 -46703,-28561 -80257,-28561 -22920,0 -43901,4491 -62905,13436 -19292,8981 -34417,22920 -45877,41566 -11496,18645 -17352,41530 -17352,68689 0,28561 5856,55720 17603,80976 11784,25256 31650,54535 59600,87838zm125272 448817c-42212,-40380 -91143,-89239 -147079,-146145 -55972,-56906 -98687,-101525 -128398,-133858 -32728,21699 -56762,45805 -72426,72713 -15628,26657 -23172,56403 -23172,89239 0,49577 17316,88520 52020,116866 34632,28094 81946,42033 142049,42033 36069,0 67360,-3305 93694,-9915 26549,-6610 54247,-17029 83311,-30932z"/>
  <polygon class="fil0" points="12849566,6388013 13982403,6388013 13982403,6001096 12849566,6001096 "/>
 </g>
</svg>
