<?xml version="1.0" standalone="no"?>
<!DOCTYPE svg PUBLIC "-//W3C//DTD SVG 20010904//EN"
 "http://www.w3.org/TR/2001/REC-SVG-20010904/DTD/svg10.dtd">
<svg version="1.0" xmlns="http://www.w3.org/2000/svg"
 width="512.000000pt" height="512.000000pt" viewBox="0 0 512.000000 512.000000"
 preserveAspectRatio="xMidYMid meet">
<metadata>
Created by potrace 1.14, written by Peter Selinger 2001-2017
</metadata>
<g transform="translate(0.000000,512.000000) scale(0.100000,-0.100000)"
fill="#000000" stroke="none">
<path d="M2105 5106 c-117 -28 -244 -124 -304 -230 -111 -196 -75 -417 111
-682 111 -158 458 -484 610 -574 l38 -22 42 25 c83 49 265 202 399 336 355
357 464 663 322 911 -87 151 -226 237 -398 246 -124 6 -230 -28 -323 -103 -47
-38 -42 -39 -100 15 -20 18 -100 58 -147 72 -56 17 -191 20 -250 6z"/>
<path d="M1798 4026 c-167 -103 -292 -245 -323 -368 -6 -23 -3 -26 25 -30 54
-8 165 0 231 17 81 21 191 76 247 123 65 55 81 62 108 50 13 -6 24 -14 25 -17
0 -3 2 -14 4 -24 11 -56 -219 -210 -346 -232 -18 -3 -35 -8 -38 -10 -23 -13
-208 -22 -256 -11 -79 17 -123 16 -190 -4 -249 -76 -391 -203 -435 -389 -14
-58 -8 -195 10 -247 l10 -29 108 -1 c162 -2 266 -26 408 -96 86 -42 107 -67
93 -105 -14 -38 -48 -38 -120 0 -61 32 -137 62 -190 73 -13 2 -44 9 -69 14
-25 5 -97 8 -160 7 -140 -3 -156 -10 -262 -117 -116 -117 -177 -259 -183 -421
-8 -235 133 -475 369 -627 106 -69 335 -164 448 -186 13 -2 56 -12 95 -20 40
-9 85 -18 100 -20 16 -2 48 -8 73 -11 25 -4 52 -9 61 -10 93 -17 417 -24 564
-11 244 20 485 72 730 156 392 135 499 150 880 125 273 -19 394 -2 550 75 200
98 295 283 249 482 -28 118 -118 249 -221 320 l-46 31 -151 1 c-83 0 -179 -3
-214 -7 -126 -15 -327 -77 -581 -179 -219 -87 -443 -160 -538 -173 -21 -3 -45
-8 -53 -11 -8 -3 -76 -8 -150 -10 -106 -3 -155 0 -228 15 -106 22 -142 41
-142 74 0 50 32 62 108 43 209 -54 451 -29 742 77 114 41 277 104 305 117 28
13 91 35 227 80 176 58 312 81 498 84 l85 1 26 54 c51 104 63 235 31 338 -51
163 -177 268 -441 367 -76 28 -98 33 -120 24 -36 -14 -161 -2 -235 23 -133 45
-309 162 -322 215 -12 49 55 86 87 48 26 -31 125 -102 179 -127 51 -24 156
-53 190 -52 34 0 9 138 -44 243 -64 124 -160 211 -298 268 l-65 26 -154 -154
c-85 -85 -199 -190 -254 -234 -264 -210 -271 -211 -459 -70 -162 121 -341 286
-462 427 -17 19 -35 38 -40 41 -5 3 -39 -13 -76 -36z"/>
<path d="M3364 1495 c-105 -19 -429 -118 -438 -134 -2 -3 -7 -62 -10 -131 -4
-69 -9 -163 -11 -210 -3 -47 -7 -137 -10 -200 -12 -262 -16 -359 -20 -435 -2
-44 -7 -141 -10 -215 -4 -74 -7 -137 -7 -140 -2 -29 5 -30 192 -30 l190 0 1
23 c0 12 2 31 3 42 11 78 18 127 26 175 5 30 12 78 15 105 3 28 15 108 26 180
11 72 22 144 23 160 2 17 7 50 10 75 11 67 15 90 21 140 3 25 7 59 10 75 2 17
8 59 14 95 5 36 13 88 16 115 4 28 8 57 10 65 2 8 7 39 10 69 4 30 8 62 10 71
11 56 15 120 8 119 -4 -1 -40 -7 -79 -14z"/>
<path d="M3559 1499 c0 -8 -2 -23 -4 -34 -3 -11 -7 -42 -10 -70 -3 -27 -7 -57
-10 -65 -2 -8 -6 -37 -10 -65 -3 -27 -8 -61 -10 -75 -2 -14 -16 -106 -30 -205
-14 -99 -28 -191 -30 -205 -2 -14 -6 -44 -9 -67 -11 -83 -16 -119 -20 -138 -2
-11 -7 -42 -10 -70 -7 -49 -13 -94 -21 -145 -17 -110 -44 -298 -48 -335 -2
-19 4 -20 146 -22 169 -2 211 8 276 64 51 43 74 86 99 189 11 43 41 160 67
259 26 99 48 187 50 195 2 8 24 97 50 197 25 101 48 191 50 200 2 10 25 98 50
197 25 98 44 184 41 192 -4 10 -13 11 -36 4 -33 -10 -280 -7 -467 5 -93 6
-113 5 -114 -6z"/>
<path d="M964 1383 c5 -18 40 -154 217 -851 50 -196 99 -372 109 -393 25 -48
91 -104 145 -122 58 -20 347 -24 341 -5 -3 7 -7 37 -11 67 -3 30 -8 64 -10 75
-2 12 -7 44 -10 71 -3 28 -8 59 -10 70 -2 11 -7 40 -10 65 -3 25 -7 54 -9 65
-2 11 -7 43 -10 70 -12 85 -25 179 -30 202 -3 12 -7 48 -11 80 -3 32 -8 67
-10 78 -3 11 -7 38 -10 60 -3 22 -10 69 -16 105 -6 36 -12 85 -15 110 -10 105
-7 102 -130 122 -137 23 -312 69 -427 114 -49 19 -91 34 -94 34 -2 0 -2 -8 1
-17z"/>
<path d="M2695 1299 c-60 -16 -123 -31 -140 -34 -16 -2 -41 -7 -55 -10 -14 -3
-59 -10 -100 -16 -41 -6 -78 -13 -82 -15 -5 -3 -6 -40 -3 -82 3 -42 7 -126 10
-187 2 -60 7 -164 10 -230 3 -66 7 -149 10 -185 2 -36 7 -132 11 -215 3 -82 8
-179 9 -215 2 -36 4 -75 4 -87 l1 -23 190 0 190 0 1 33 c1 17 2 50 4 72 1 22
6 112 10 200 4 88 8 187 10 220 2 33 6 125 10 205 3 80 8 172 10 205 8 146 17
395 14 394 -2 -1 -53 -14 -114 -30z"/>
<path d="M1715 1175 c3 -22 8 -51 10 -65 2 -14 7 -45 10 -70 3 -25 8 -56 10
-70 3 -14 7 -45 10 -70 3 -25 8 -56 10 -70 2 -14 6 -45 10 -70 3 -25 8 -56 10
-70 3 -14 7 -41 9 -60 4 -32 41 -289 51 -350 2 -14 9 -61 15 -105 6 -44 13
-89 15 -100 2 -11 4 -32 4 -47 l1 -28 191 0 191 0 -7 167 c-8 187 -12 268 -19
405 -3 51 -8 161 -12 243 -3 83 -7 173 -9 200 -2 28 -4 84 -5 125 l-3 75 -248
0 -249 0 5 -40z"/>
</g>
</svg>
